#N canvas 428 69 1044 656 12;
#X floatatom 157 209 5 0 0 1 Bar - - 0;
#X floatatom 259 208 5 0 0 1 Step - - 0;
#X floatatom 364 208 5 0 0 1 Tick - - 0;
#X msg 157 235 input_bar \$1;
#X msg 259 234 input_step \$1;
#X msg 364 234 input_tick \$1;
#X text 39 37 Written By: Reg Finely;
#X text 38 58 Aka Scr1ptAl1as;
#N canvas 123 109 777 612 \$0-examplepatch 0;
#X obj 230 535 keyboard 17 80 4 3 0 0 empty empty;
#X obj 228 621 unpack f f;
#X floatatom 228 647 5 0 0 0 - - - 0;
#X obj 228 671 print;
#X floatatom 218 209 5 0 0 0 Bar - - 0;
#X listbox 521 163 7 0 0 0 Time_Division - - 0;
#X floatatom 289 209 5 0 0 0 Step - - 0;
#X floatatom 360 207 5 0 0 0 Tick - - 0;
#X floatatom 295 647 5 0 0 0 - - - 0;
#X obj 254 15 humanmetro, f 28;
#X msg 205 237 input_bar \$1;
#X msg 303 237 input_step \$1;
#X msg 405 236 input_tick \$1;
#X obj 227 308 euclideanfifths 100;
#X listbox 506 196 7 0 0 0 Get_Results - - 0;
#X obj 214 169 bng 15 250 50 0 empty empty Metro_Bang_Per_Tick 17 7
0 10 #fcfcfc #000000 #000000;
#X msg 406 506 flush;
#X connect 0 0 1 0;
#X connect 1 0 2 0;
#X connect 1 1 8 0;
#X connect 2 0 3 0;
#X connect 4 0 10 0;
#X connect 6 0 11 0;
#X connect 7 0 12 0;
#X connect 9 0 15 0;
#X connect 9 1 4 0;
#X connect 9 2 6 0;
#X connect 9 3 7 0;
#X connect 9 4 14 0;
#X connect 9 5 5 0;
#X connect 10 0 13 0;
#X connect 11 0 13 0;
#X connect 12 0 13 0;
#X connect 13 0 0 0;
#X connect 13 1 16 0;
#X connect 16 0 0 0;
#X restore 40 114 pd \$0-examplepatch;
#X floatatom 181 153 5 0 0 1 Chord_Index - - 0;
#X msg 181 177 change_index \$1;
#X msg 118 271 bangmajor;
#X msg 117 301 bangminor;
#X floatatom 329 153 5 0 0 1 Bars_per_chord - - 0;
#X msg 329 177 set_bars \$1;
#X msg 479 163 set_beats \$1;
#X floatatom 479 137 5 0 0 1 Beats - - 0;
#X floatatom 481 210 5 0 0 1 Beat_frequency - - 0;
#X msg 481 236 set_beatfreq \$1;
#X obj 304 497 print bang;
#X obj 489 501 print float;
#X floatatom 627 131 5 0 0 1 Rhythm_probability - - 0;
#X msg 627 157 set_rhythm \$1;
#X floatatom 629 206 5 0 0 1 Step_shift - - 0;
#X floatatom 801 129 5 0 0 1 Minor_frequency - - 0;
#X msg 629 232 set_stepshift \$1;
#X msg 801 154 set_minorfreq \$1;
#X obj 304 297 euclideanfifths 99;
#X text 642 16 Note* Sliders must be set from 0 to 10;
#X obj 632 184 hsl 128 15 0 10 0 0 empty empty StepShift 3 7 0 10 #202020
#00faff #ffffff 0 1;
#X obj 630 110 hsl 128 15 2 10 0 0 empty empty Rhythm_Probability 3
7 0 10 #202020 #00faff #ffffff 0 1;
#X obj 804 109 hsl 128 15 0 10 0 0 empty empty Minor_Frequency 3 7
0 10 #202020 #00faff #ffffff 0 1;
#X obj 481 113 hsl 128 15 2 10 0 0 empty empty Beats 3 7 0 10 #202020
#00faff #ffffff 0 1;
#X obj 485 188 hsl 128 15 2 10 0 0 empty empty Beat_Frequency 3 7 0
10 #202020 #00faff #ffffff 0 1;
#X text 38 76 2022/05/12 11:17PM;
#X msg 128 512 get_minorfreq;
#X obj 678 498 print got_data;
#X msg 131 351 get_chordindex;
#X msg 131 378 get_barsperchord;
#X msg 130 406 get_beats;
#X msg 130 432 get_beatfreq;
#X msg 129 458 get_rhythmprob;
#X msg 129 487 get_stepshift;
#X text 213 8 Euclidean fifths is a chord randomizer based on the circle
of fifths.;
#X text 38 18 Euclidean Fifths v1.0;
#X connect 0 0 3 0;
#X connect 1 0 4 0;
#X connect 2 0 5 0;
#X connect 3 0 27 0;
#X connect 4 0 27 0;
#X connect 5 0 27 0;
#X connect 9 0 10 0;
#X connect 10 0 27 0;
#X connect 11 0 27 0;
#X connect 12 0 27 0;
#X connect 13 0 14 0;
#X connect 14 0 27 0;
#X connect 15 0 27 0;
#X connect 16 0 15 0;
#X connect 17 0 18 0;
#X connect 18 0 27 0;
#X connect 21 0 22 0;
#X connect 22 0 27 0;
#X connect 23 0 25 0;
#X connect 24 0 26 0;
#X connect 25 0 27 0;
#X connect 26 0 27 0;
#X connect 27 0 19 0;
#X connect 27 1 20 0;
#X connect 27 2 36 0;
#X connect 29 0 23 0;
#X connect 30 0 21 0;
#X connect 31 0 24 0;
#X connect 32 0 16 0;
#X connect 33 0 17 0;
#X connect 35 0 27 0;
#X connect 37 0 27 0;
#X connect 38 0 27 0;
#X connect 39 0 27 0;
#X connect 40 0 27 0;
#X connect 41 0 27 0;
#X connect 42 0 27 0;
