#N canvas 299 61 1924 997 12;
#X obj 100 100 cnv 15 380 190 empty empty EuclideanFifths 20 10 0 14
#e0e0e0 #000000 0;
#X obj 900 464 random 12;
#X msg 900 438 bang;
#X floatatom 900 489 5 0 0 0 - - - 0;
#N canvas 695 300 450 398 \$0-stepshift 0;
#X floatatom 213 122 5 0 0 0 - - - 0;
#X obj 212 69 * 10;
#X obj 213 96 int;
#X obj 166 173 * 10;
#X obj 166 198 int;
#X floatatom 166 223 5 0 0 0 - - - 0;
#X obj 213 147 *;
#X floatatom 213 172 5 0 0 0 - - - 0;
#X obj 214 198 / 10;
#X floatatom 216 222 5 0 0 0 - - - 0;
#X obj 166 247 >;
#X floatatom 166 271 5 0 0 0 - - - 0;
#X obj 113 314 spigot 0;
#X obj 166 293 tgl 15 0 empty empty empty 17 7 0 10 #fcfcfc #000000
#000000 0 1;
#X obj 155 117 inlet;
#X obj 211 13 inlet;
#X obj 103 281 inlet;
#X obj 107 353 outlet;
#X obj 214 44 / 10;
#X obj 173 148 / 10;
#X connect 0 0 6 0;
#X connect 1 0 2 0;
#X connect 2 0 0 0;
#X connect 3 0 4 0;
#X connect 4 0 5 0;
#X connect 5 0 10 0;
#X connect 6 0 7 0;
#X connect 7 0 8 0;
#X connect 8 0 9 0;
#X connect 9 0 10 1;
#X connect 10 0 11 0;
#X connect 11 0 13 0;
#X connect 12 0 17 0;
#X connect 13 0 12 1;
#X connect 14 0 19 0;
#X connect 15 0 6 1;
#X connect 15 0 18 0;
#X connect 16 0 12 0;
#X connect 18 0 1 0;
#X connect 19 0 3 0;
#X restore 897 407 pd \$0-stepshift;
#N canvas 698 231 450 398 \$0-stepbeats 0;
#X obj 110 78 * 10;
#X obj 110 103 int;
#X floatatom 110 128 5 0 0 0 - - - 0;
#X floatatom 164 235 5 0 0 0 - - - 0;
#X obj 111 278 spigot 0;
#X obj 164 257 tgl 15 0 empty empty empty 17 7 0 10 #fcfcfc #000000
#000000 0 1;
#X obj 110 17 inlet;
#X obj 255 26 inlet;
#X obj 63 200 inlet;
#X obj 105 317 outlet;
#X floatatom 238 84 5 0 0 0 - - - 0;
#X obj 238 144 * 10;
#X obj 237 171 int;
#X floatatom 230 202 5 0 0 0 - - - 0;
#X obj 164 209 %;
#X obj 238 57 f;
#X obj 113 153 t f b;
#X obj 110 53 / 10;
#X obj 238 115 / 10;
#X connect 0 0 1 0;
#X connect 1 0 2 0;
#X connect 2 0 16 0;
#X connect 3 0 5 0;
#X connect 4 0 9 0;
#X connect 5 0 4 1;
#X connect 6 0 17 0;
#X connect 7 0 15 1;
#X connect 8 0 4 0;
#X connect 10 0 18 0;
#X connect 11 0 12 0;
#X connect 12 0 13 0;
#X connect 13 0 14 1;
#X connect 14 0 3 0;
#X connect 15 0 10 0;
#X connect 16 0 14 0;
#X connect 16 1 15 0;
#X connect 17 0 0 0;
#X connect 18 0 11 0;
#X restore 779 305 pd \$0-stepbeats;
#X obj 779 329 bng 15 250 50 0 empty empty empty 17 7 0 10 #fcfcfc
#000000 #000000;
#X obj 780 377 s \$0-beatsperchord;
#X obj 832 256 tgl 15 0 empty empty empty 17 7 0 10 #fcfcfc #000000
#000000 0 1;
#X obj 779 280 spigot 0;
#X floatatom 132 706 5 0 0 0 - - - 0;
#X obj 150 780 s \$0-dontchangechord;
#X obj 132 471 r \$0-beatsperchord;
#X obj 452 484 random 2;
#X obj 452 534 sel 0 1;
#X obj 478 560 r \$0-randomradio;
#X msg 449 589 1;
#X floatatom 470 653 5 0 0 0 - - - 0;
#X obj 546 590 r \$0-randomradio;
#X msg 510 599 1;
#X obj 470 678 t b f;
#X obj 452 457 r \$0-InOrDecchord;
#X obj 502 758 s \$0-incrementedchord;
#X obj 470 784 s \$0-changechord;
#X obj 470 732 t b f;
#X obj 132 805 s \$0-InOrDecchord;
#X obj 675 478 random 2;
#X floatatom 675 503 5 0 0 0 - - - 0;
#X obj 675 528 sel 0 1;
#X obj 693 592 +;
#X obj 711 557 r \$0-randomradio;
#X msg 675 566 1;
#X floatatom 693 647 5 0 0 0 - - - 0;
#X obj 769 584 r \$0-randomradio;
#X msg 733 593 1;
#X obj 693 700 f;
#X obj 693 672 t b f;
#X obj 725 752 s \$0-incrementedchord;
#X obj 693 726 t b f;
#X obj 675 451 r \$0-InOrDecMinorchord;
#X obj 692 778 s \$0-changeminorchord;
#X obj 169 754 s \$0-InOrDecMinorchord;
#X obj 470 704 f;
#X floatatom 451 509 5 0 0 0 - - - 0;
#X obj 732 619 -;
#X obj 510 629 -;
#X obj 460 617 +;
#X obj 786 109 bng 15 250 50 0 empty empty Bar 17 7 0 10 #fcfcfc #000000
#000000;
#X obj 780 353 t b b;
#X obj 511 527 r \$0-incrementedchord;
#X obj 573 645 < 0;
#X obj 574 673 == 1;
#X obj 576 700 bng 15 250 50 0 empty empty empty 17 7 0 10 #fcfcfc
#000000 #000000;
#X obj 769 640 < 0;
#X obj 770 668 == 1;
#X obj 772 695 bng 15 250 50 0 empty empty empty 17 7 0 10 #fcfcfc
#000000 #000000;
#X obj 577 724 random 12;
#X obj 793 714 random 12;
#X obj 999 381 f;
#X obj 999 353 t b f;
#X obj 881 275 f;
#X obj 878 241 t b f;
#X obj 786 80 t f f b;
#X obj 956 602 probabilitycheck;
#X msg 956 574 randomize;
#X floatatom 956 627 5 0 0 0 - - - 0;
#X floatatom 1065 627 5 0 0 0 - - - 0;
#X msg 947 547 set_comparison 1;
#X obj 1105 376 f;
#X obj 1105 348 t b f;
#X obj 854 136 t f f f b b b;
#X obj 900 513 t b f b;
#X floatatom 1077 531 5 0 0 0 - - - 0;
#X obj 1077 479 * 10;
#X obj 1077 505 int;
#X obj 1077 556 *;
#X floatatom 1077 581 5 0 0 1 Percentage - - 0;
#X obj 1079 428 t f f b;
#X obj 1079 454 / 10;
#X obj 743 132 s \$0-bybar;
#X obj 132 577 probabilitycheck;
#X msg 132 549 randomize;
#X floatatom 132 602 5 0 0 0 - - - 0;
#X floatatom 227 606 5 0 0 0 - - - 0;
#X msg 164 526 set_comparison 1;
#X floatatom 306 494 5 0 0 0 - - - 0;
#X obj 306 442 * 10;
#X obj 306 468 int;
#X obj 306 519 *;
#X floatatom 306 544 5 0 0 1 Percentage - - 0;
#X obj 308 391 t f f b;
#X obj 308 417 / 10;
#X obj 132 498 t b b;
#X obj 132 651 spigot 0;
#X obj 185 630 tgl 15 0 empty empty empty 17 7 0 10 #fcfcfc #000000
#000000 0 1;
#X obj 132 627 t b f;
#X obj 132 682 random 3, f 10;
#X obj 132 730 sel 0 1 2;
#X floatatom 261 320 5 0 11 0 chord_index - - 0;
#X obj 174 343 bng 15 250 50 0 empty empty Minor 17 7 0 10 #fcfcfc
#000000 #000000;
#X obj 99 342 bng 15 250 50 0 empty empty Major 17 7 0 10 #fcfcfc #000000
#000000;
#N canvas 151 74 1920 997 \$0-ChordInterpreter 0;
#X obj 167 21 inlet;
#X obj 184 158 hradio 15 1 0 12 empty empty major 0 -8 0 10 #fcfcfc
#000000 #000000 0;
#X obj 582 155 hradio 15 1 0 12 empty empty minor 0 -8 0 10 #fcfcfc
#000000 #000000 0;
#X obj 180 217 sel 0 1 2 3 4 5 6 7 8 9 10 11;
#X obj 106 251 bng 15 250 50 0 empty empty C 17 7 0 10 #fcfcfc #000000
#000000;
#X obj 138 252 bng 15 250 50 0 empty empty G 17 7 0 10 #fcfcfc #000000
#000000;
#X obj 170 252 bng 15 250 50 0 empty empty D 17 7 0 10 #fcfcfc #000000
#000000;
#X obj 200 254 bng 15 250 50 0 empty empty A 17 7 0 10 #fcfcfc #000000
#000000;
#X obj 232 254 bng 15 250 50 0 empty empty E 17 7 0 10 #fcfcfc #000000
#000000;
#X obj 266 254 bng 15 250 50 0 empty empty B 17 7 0 10 #fcfcfc #000000
#000000;
#X obj 298 255 bng 15 250 50 0 empty empty Fb 17 7 0 10 #fcfcfc #000000
#000000;
#X obj 337 258 bng 15 250 50 0 empty empty Db 17 7 0 10 #fcfcfc #000000
#000000;
#X obj 378 257 bng 15 250 50 0 empty empty Ab 17 7 0 10 #fcfcfc #000000
#000000;
#X obj 415 256 bng 15 250 50 0 empty empty Eb 17 7 0 10 #fcfcfc #000000
#000000;
#X obj 456 256 bng 15 250 50 0 empty empty Bb 17 7 0 10 #fcfcfc #000000
#000000;
#X obj 495 255 bng 15 250 50 0 empty empty F 17 7 0 10 #fcfcfc #000000
#000000;
#X obj 859 259 bng 15 250 50 0 empty empty Cm 17 7 0 10 #fcfcfc #000000
#000000;
#X obj 893 260 bng 15 250 50 0 empty empty Gm 17 7 0 10 #fcfcfc #000000
#000000;
#X obj 930 260 bng 15 250 50 0 empty empty Dm 17 7 0 10 #fcfcfc #000000
#000000;
#X obj 542 257 bng 15 250 50 0 empty empty Am 17 7 0 10 #fcfcfc #000000
#000000;
#X obj 576 257 bng 15 250 50 0 empty empty Em 17 7 0 10 #fcfcfc #000000
#000000;
#X obj 608 257 bng 15 250 50 0 empty empty Bm 17 7 0 10 #fcfcfc #000000
#000000;
#X obj 640 258 bng 15 250 50 0 empty empty Fbm 17 7 0 10 #fcfcfc #000000
#000000;
#X obj 679 261 bng 15 250 50 0 empty empty Cbm 17 7 0 10 #fcfcfc #000000
#000000;
#X obj 720 260 bng 15 250 50 0 empty empty Gbm 17 7 0 10 #fcfcfc #000000
#000000;
#X obj 757 259 bng 15 250 50 0 empty empty Ebm 17 7 0 10 #fcfcfc #000000
#000000;
#X obj 828 260 bng 15 250 50 0 empty empty Fm 17 7 0 10 #fcfcfc #000000
#000000;
#X obj 790 262 bng 15 250 50 0 empty empty Bbm 17 7 0 10 #fcfcfc #000000
#000000;
#X obj 588 206 sel 0 1 2 3 4 5 6 7 8 9 10 11;
#N canvas 234 234 450 300 \$0-major-c 0;
#X msg 77 89 set 60 127;
#X msg 59 115 set 64 127;
#X msg 37 143 set 67 127;
#X obj 36 60 t b b b;
#X obj 37 36 inlet;
#X obj 38 182 outlet;
#X connect 0 0 5 0;
#X connect 1 0 5 0;
#X connect 2 0 5 0;
#X connect 3 0 2 0;
#X connect 3 1 1 0;
#X connect 3 2 0 0;
#X connect 4 0 3 0;
#X restore 101 292 pd \$0-major-c;
#N canvas 234 234 450 300 \$0-major-g 0;
#X obj 36 60 t b b b;
#X obj 37 36 inlet;
#X obj 38 182 outlet;
#X msg 77 89 set 67 127;
#X msg 57 115 set 71 127;
#X msg 37 143 set 74 127;
#X connect 0 0 5 0;
#X connect 0 1 4 0;
#X connect 0 2 3 0;
#X connect 1 0 0 0;
#X connect 3 0 2 0;
#X connect 4 0 2 0;
#X connect 5 0 2 0;
#X restore 137 314 pd \$0-major-g;
#N canvas 234 234 450 300 \$0-major-d 0;
#X obj 36 60 t b b b;
#X obj 37 36 inlet;
#X obj 38 182 outlet;
#X msg 77 89 set 62 127;
#X msg 57 115 set 66 127;
#X msg 37 143 set 69 127;
#X connect 0 0 5 0;
#X connect 0 1 4 0;
#X connect 0 2 3 0;
#X connect 1 0 0 0;
#X connect 3 0 2 0;
#X connect 4 0 2 0;
#X connect 5 0 2 0;
#X restore 165 341 pd \$0-major-d;
#N canvas 234 234 450 300 \$0-major-a 0;
#X obj 36 60 t b b b;
#X obj 37 36 inlet;
#X obj 38 182 outlet;
#X msg 77 89 set 69 127;
#X msg 57 115 set 73 127;
#X msg 37 143 set 76 127;
#X connect 0 0 5 0;
#X connect 0 1 4 0;
#X connect 0 2 3 0;
#X connect 1 0 0 0;
#X connect 3 0 2 0;
#X connect 4 0 2 0;
#X connect 5 0 2 0;
#X restore 198 364 pd \$0-major-a;
#N canvas 234 234 450 300 \$0-major-e 0;
#X obj 36 60 t b b b;
#X obj 37 36 inlet;
#X obj 38 182 outlet;
#X msg 77 89 set 64 127;
#X msg 57 115 set 68 127;
#X msg 37 143 set 71 127;
#X connect 0 0 5 0;
#X connect 0 1 4 0;
#X connect 0 2 3 0;
#X connect 1 0 0 0;
#X connect 3 0 2 0;
#X connect 4 0 2 0;
#X connect 5 0 2 0;
#X restore 231 390 pd \$0-major-e;
#N canvas 234 234 450 300 \$0-major-b 0;
#X obj 36 60 t b b b;
#X obj 37 36 inlet;
#X obj 38 182 outlet;
#X msg 77 89 set 71 127;
#X msg 57 115 set 75 127;
#X msg 37 143 set 78 127;
#X connect 0 0 5 0;
#X connect 0 1 4 0;
#X connect 0 2 3 0;
#X connect 1 0 0 0;
#X connect 3 0 2 0;
#X connect 4 0 2 0;
#X connect 5 0 2 0;
#X restore 257 422 pd \$0-major-b;
#N canvas 234 234 450 300 \$0-major-fb 0;
#X obj 36 60 t b b b;
#X obj 37 36 inlet;
#X obj 38 182 outlet;
#X msg 75 86 set 66 127;
#X msg 57 115 set 70 127;
#X msg 37 143 set 73 127;
#X connect 0 0 5 0;
#X connect 0 1 4 0;
#X connect 0 2 3 0;
#X connect 1 0 0 0;
#X connect 3 0 2 0;
#X connect 4 0 2 0;
#X connect 5 0 2 0;
#X restore 295 286 pd \$0-major-fb;
#N canvas 234 234 450 300 \$0-major-db 0;
#X obj 36 60 t b b b;
#X obj 37 36 inlet;
#X obj 38 182 outlet;
#X msg 77 89 set 63 127;
#X msg 57 115 set 67 127;
#X msg 37 143 set 70 127;
#X connect 0 0 5 0;
#X connect 0 1 4 0;
#X connect 0 2 3 0;
#X connect 1 0 0 0;
#X connect 3 0 2 0;
#X connect 4 0 2 0;
#X connect 5 0 2 0;
#X restore 324 314 pd \$0-major-db;
#N canvas 234 234 450 300 \$0-major-ab 0;
#X obj 36 60 t b b b;
#X obj 37 36 inlet;
#X obj 38 182 outlet;
#X msg 77 89 set 68 127;
#X msg 57 115 set 72 127;
#X msg 37 143 set 75 127;
#X connect 0 0 5 0;
#X connect 0 1 4 0;
#X connect 0 2 3 0;
#X connect 1 0 0 0;
#X connect 3 0 2 0;
#X connect 4 0 2 0;
#X connect 5 0 2 0;
#X restore 342 340 pd \$0-major-ab;
#N canvas 234 234 450 300 \$0-major-eb 0;
#X obj 36 60 t b b b;
#X obj 37 36 inlet;
#X obj 38 182 outlet;
#X msg 75 86 set 63 127;
#X msg 57 115 set 67 127;
#X msg 37 143 set 70 127;
#X connect 0 0 5 0;
#X connect 0 1 4 0;
#X connect 0 2 3 0;
#X connect 1 0 0 0;
#X connect 3 0 2 0;
#X connect 4 0 2 0;
#X connect 5 0 2 0;
#X restore 371 368 pd \$0-major-eb;
#N canvas 234 234 450 300 \$0-major-bb 0;
#X obj 36 60 t b b b;
#X obj 37 36 inlet;
#X obj 38 182 outlet;
#X msg 77 89 set 70 127;
#X msg 57 115 set 74 127;
#X msg 36 143 set 77 127;
#X connect 0 0 5 0;
#X connect 0 1 4 0;
#X connect 0 2 3 0;
#X connect 1 0 0 0;
#X connect 3 0 2 0;
#X connect 4 0 2 0;
#X connect 5 0 2 0;
#X restore 400 396 pd \$0-major-bb;
#N canvas 234 234 450 300 \$0-major-f 0;
#X obj 36 60 t b b b;
#X obj 37 36 inlet;
#X obj 38 182 outlet;
#X msg 77 89 set 65 127;
#X msg 57 115 set 69 127;
#X msg 37 143 set 72 127;
#X connect 0 0 5 0;
#X connect 0 1 4 0;
#X connect 0 2 3 0;
#X connect 1 0 0 0;
#X connect 3 0 2 0;
#X connect 4 0 2 0;
#X connect 5 0 2 0;
#X restore 417 421 pd \$0-major-f;
#N canvas 157 209 450 300 \$0-minor-am 0;
#X obj 36 60 t b b b;
#X obj 37 36 inlet;
#X obj 38 182 outlet;
#X msg 76 91 set 69 127;
#X msg 59 115 set 72 127;
#X msg 37 143 set 76 127;
#X connect 0 0 5 0;
#X connect 0 1 4 0;
#X connect 0 2 3 0;
#X connect 1 0 0 0;
#X connect 3 0 2 0;
#X connect 4 0 2 0;
#X connect 5 0 2 0;
#X restore 535 285 pd \$0-minor-am;
#N canvas 234 234 450 300 \$0-minor-em 0;
#X obj 36 60 t b b b;
#X obj 37 36 inlet;
#X obj 38 182 outlet;
#X msg 75 92 set 64 127;
#X msg 59 115 set 67 127;
#X msg 37 143 set 71 127;
#X connect 0 0 5 0;
#X connect 0 1 4 0;
#X connect 0 2 3 0;
#X connect 1 0 0 0;
#X connect 3 0 2 0;
#X connect 4 0 2 0;
#X connect 5 0 2 0;
#X restore 566 311 pd \$0-minor-em;
#N canvas 93 176 450 300 \$0-minor-bm 0;
#X obj 36 60 t b b b;
#X obj 37 36 inlet;
#X obj 38 182 outlet;
#X msg 76 91 set 71 127;
#X msg 59 115 set 74 127;
#X msg 37 143 set 78 127;
#X connect 0 0 5 0;
#X connect 0 1 4 0;
#X connect 0 2 3 0;
#X connect 1 0 0 0;
#X connect 3 0 2 0;
#X connect 4 0 2 0;
#X connect 5 0 2 0;
#X restore 605 337 pd \$0-minor-bm;
#N canvas 234 234 450 300 \$0-minor-cm 0;
#X obj 36 60 t b b b;
#X obj 37 36 inlet;
#X obj 38 182 outlet;
#X msg 77 90 set 60 127;
#X msg 58 116 set 63 127;
#X msg 37 143 set 67 127;
#X connect 0 0 5 0;
#X connect 0 1 4 0;
#X connect 0 2 3 0;
#X connect 1 0 0 0;
#X connect 3 0 2 0;
#X connect 4 0 2 0;
#X connect 5 0 2 0;
#X restore 805 365 pd \$0-minor-cm;
#N canvas 234 234 450 300 \$0-minor-bm 0;
#X obj 36 60 t b b b;
#X obj 37 36 inlet;
#X obj 38 182 outlet;
#X msg 79 91 set 70 127;
#X msg 59 115 set 73 127;
#X msg 37 143 set 77 127;
#X connect 0 0 5 0;
#X connect 0 1 4 0;
#X connect 0 2 3 0;
#X connect 1 0 0 0;
#X connect 3 0 2 0;
#X connect 4 0 2 0;
#X connect 5 0 2 0;
#X restore 775 314 pd \$0-minor-bm;
#N canvas 234 234 450 300 \$0-minor-fm 0;
#X obj 36 60 t b b b;
#X obj 37 36 inlet;
#X obj 38 182 outlet;
#X msg 76 91 set 65 127;
#X msg 59 115 set 68 127;
#X msg 37 143 set 72 127;
#X connect 0 0 5 0;
#X connect 0 1 4 0;
#X connect 0 2 3 0;
#X connect 1 0 0 0;
#X connect 3 0 2 0;
#X connect 4 0 2 0;
#X connect 5 0 2 0;
#X restore 787 340 pd \$0-minor-fm;
#N canvas 234 234 450 300 \$0-minor-cbm 0;
#X obj 36 60 t b b b;
#X obj 37 36 inlet;
#X obj 38 182 outlet;
#X msg 76 91 set 61 127;
#X msg 59 115 set 64 127;
#X msg 37 143 set 68 127;
#X connect 0 0 5 0;
#X connect 0 1 4 0;
#X connect 0 2 3 0;
#X connect 1 0 0 0;
#X connect 3 0 2 0;
#X connect 4 0 2 0;
#X connect 5 0 2 0;
#X restore 641 394 pd \$0-minor-cbm;
#N canvas 234 234 450 300 \$0-minor-fbm 0;
#X obj 36 60 t b b b;
#X obj 37 36 inlet;
#X obj 38 182 outlet;
#X msg 76 91 set 66 127;
#X msg 58 115 set 69 127;
#X msg 37 143 set 73 127;
#X connect 0 0 5 0;
#X connect 0 1 4 0;
#X connect 0 2 3 0;
#X connect 1 0 0 0;
#X connect 3 0 2 0;
#X connect 4 0 2 0;
#X connect 5 0 2 0;
#X restore 629 366 pd \$0-minor-fbm;
#N canvas 85 241 450 300 \$0-minor-gbm 0;
#X obj 36 60 t b b b;
#X obj 37 36 inlet;
#X obj 38 182 outlet;
#X msg 76 91 set 66 127;
#X msg 58 114 set 69 127;
#X msg 37 143 set 73 127;
#X connect 0 0 5 0;
#X connect 0 1 4 0;
#X connect 0 2 3 0;
#X connect 1 0 0 0;
#X connect 3 0 2 0;
#X connect 4 0 2 0;
#X connect 5 0 2 0;
#X restore 661 420 pd \$0-minor-gbm;
#N canvas 32 223 450 300 \$0-minor-ebm 0;
#X obj 36 60 t b b b;
#X obj 37 36 inlet;
#X obj 38 182 outlet;
#X msg 76 91 set 63 127;
#X msg 59 115 set 66 127;
#X msg 37 143 set 70 127;
#X connect 0 0 5 0;
#X connect 0 1 4 0;
#X connect 0 2 3 0;
#X connect 1 0 0 0;
#X connect 3 0 2 0;
#X connect 4 0 2 0;
#X connect 5 0 2 0;
#X restore 765 288 pd \$0-minor-ebm;
#N canvas 234 234 450 300 \$0-minor-gm 0;
#X obj 36 60 t b b b;
#X obj 37 36 inlet;
#X obj 38 182 outlet;
#X msg 76 91 set 67 127;
#X msg 59 115 set 70 127;
#X msg 37 143 set 74 127;
#X connect 0 0 5 0;
#X connect 0 1 4 0;
#X connect 0 2 3 0;
#X connect 1 0 0 0;
#X connect 3 0 2 0;
#X connect 4 0 2 0;
#X connect 5 0 2 0;
#X restore 819 396 pd \$0-minor-gm;
#N canvas 234 234 450 300 \$0-minor-dm 0;
#X obj 36 60 t b b b;
#X obj 37 36 inlet;
#X obj 38 182 outlet;
#X msg 75 90 set 62 127;
#X msg 59 115 set 65 127;
#X msg 37 143 set 69 127;
#X connect 0 0 5 0;
#X connect 0 1 4 0;
#X connect 0 2 3 0;
#X connect 1 0 0 0;
#X connect 3 0 2 0;
#X connect 4 0 2 0;
#X connect 5 0 2 0;
#X restore 835 423 pd \$0-minor-dm;
#X obj 626 23 inlet;
#X obj 630 565 outlet;
#X obj 200 558 outlet;
#X obj 578 108 f;
#X obj 554 82 bng 15 250 50 0 empty empty Minor 17 7 0 10 #fcfcfc #000000
#000000;
#X obj 170 99 f;
#X obj 170 74 bng 15 250 50 0 empty empty Major 17 7 0 10 #fcfcfc #000000
#000000;
#X obj 216 75 r \$0-randomradio;
#X obj 606 76 r \$0-randomradio;
#X obj 554 24 inlet;
#X obj 47 21 r \$0-changechord;
#X obj 395 24 r \$0-changeminorchord;
#X obj 435 211 s \$0-cordindex;
#X obj 433 161 + 1;
#X obj 433 135 f;
#X obj 437 187 t f;
#X obj 170 45 t b;
#X obj 554 53 t b;
#X obj 47 47 del;
#X obj 395 52 del;
#X obj 172 124 t f;
#X obj 580 134 t f;
#X obj 187 188 t f f b;
#X obj 582 178 t f f b;
#X obj 646 104 r \$0-incrementedchord;
#X connect 0 0 69 0;
#X connect 1 0 75 0;
#X connect 2 0 76 0;
#X connect 3 0 4 0;
#X connect 3 1 5 0;
#X connect 3 2 6 0;
#X connect 3 3 7 0;
#X connect 3 4 8 0;
#X connect 3 5 9 0;
#X connect 3 6 10 0;
#X connect 3 7 11 0;
#X connect 3 8 12 0;
#X connect 3 9 13 0;
#X connect 3 10 14 0;
#X connect 3 11 15 0;
#X connect 4 0 29 0;
#X connect 5 0 30 0;
#X connect 6 0 31 0;
#X connect 7 0 32 0;
#X connect 8 0 33 0;
#X connect 9 0 34 0;
#X connect 10 0 35 0;
#X connect 11 0 36 0;
#X connect 12 0 37 0;
#X connect 13 0 38 0;
#X connect 14 0 39 0;
#X connect 15 0 40 0;
#X connect 16 0 44 0;
#X connect 17 0 51 0;
#X connect 18 0 52 0;
#X connect 19 0 41 0;
#X connect 20 0 42 0;
#X connect 21 0 43 0;
#X connect 22 0 48 0;
#X connect 23 0 47 0;
#X connect 24 0 49 0;
#X connect 25 0 50 0;
#X connect 26 0 46 0;
#X connect 27 0 45 0;
#X connect 28 0 19 0;
#X connect 28 1 20 0;
#X connect 28 2 21 0;
#X connect 28 3 22 0;
#X connect 28 4 23 0;
#X connect 28 5 24 0;
#X connect 28 6 25 0;
#X connect 28 7 27 0;
#X connect 28 8 26 0;
#X connect 28 9 16 0;
#X connect 28 10 17 0;
#X connect 28 11 18 0;
#X connect 29 0 55 0;
#X connect 30 0 55 0;
#X connect 31 0 55 0;
#X connect 32 0 55 0;
#X connect 33 0 55 0;
#X connect 34 0 55 0;
#X connect 35 0 55 0;
#X connect 36 0 55 0;
#X connect 37 0 55 0;
#X connect 38 0 55 0;
#X connect 39 0 55 0;
#X connect 40 0 55 0;
#X connect 41 0 55 0;
#X connect 42 0 55 0;
#X connect 43 0 55 0;
#X connect 44 0 55 0;
#X connect 45 0 55 0;
#X connect 46 0 55 0;
#X connect 47 0 55 0;
#X connect 48 0 55 0;
#X connect 49 0 55 0;
#X connect 50 0 55 0;
#X connect 51 0 55 0;
#X connect 52 0 55 0;
#X connect 53 0 56 1;
#X connect 53 0 58 1;
#X connect 56 0 67 1;
#X connect 56 0 74 0;
#X connect 57 0 56 0;
#X connect 58 0 67 1;
#X connect 58 0 73 0;
#X connect 59 0 58 0;
#X connect 60 0 58 1;
#X connect 61 0 56 1;
#X connect 62 0 70 0;
#X connect 63 0 71 0;
#X connect 64 0 72 0;
#X connect 66 0 68 0;
#X connect 67 0 66 0;
#X connect 68 0 65 0;
#X connect 69 0 59 0;
#X connect 70 0 57 0;
#X connect 71 0 59 0;
#X connect 72 0 57 0;
#X connect 73 0 1 0;
#X connect 74 0 2 0;
#X connect 75 0 3 0;
#X connect 75 1 54 0;
#X connect 75 2 67 0;
#X connect 76 0 28 0;
#X connect 76 1 54 0;
#X connect 76 2 67 0;
#X connect 77 0 56 1;
#X connect 77 0 58 1;
#X restore 97 369 pd \$0-ChordInterpreter;
#X obj 99 406 outlet;
#X obj 249 411 outlet;
#X obj 108 252 hsl 128 15 0 10 0 0 empty empty StepShift 3 7 0 10 #202020
#00faff #ffffff 0 1;
#X floatatom 106 170 5 2 10 1 Bars_Per_Chord - - 0;
#X obj 512 243 s \$0-byrandombar;
#X obj 108 232 hsl 128 15 2 10 0 0 empty empty Rhythm_Probability 3
7 0 10 #202020 #00faff #ffffff 0 1;
#X obj 108 271 hsl 128 15 0 10 0 0 empty empty Minor_Frequency 3 7
0 10 #202020 #00faff #ffffff 0 1;
#X obj 108 194 hsl 128 15 2 10 0 0 empty empty Beats 3 7 0 10 #202020
#00faff #ffffff 0 1;
#X obj 108 213 hsl 128 15 2 10 0 0 empty empty Beat_Frequency 3 7 0
10 #202020 #00faff #ffffff 0 1;
#X floatatom 108 125 5 0 11 1 chord_index - - 0;
#X obj 157 150 bng 15 250 50 0 empty empty Minor 17 7 0 10 #fcfcfc
#000000 #000000;
#X obj 107 150 bng 15 250 50 0 empty empty Major 17 7 0 10 #fcfcfc
#000000 #000000;
#N canvas 198 361 1920 997 \$0-displayUpdater 0;
#X obj 153 48 r \$0-randomradio;
#X obj 172 72 r \$0-incrementedchord;
#X obj 154 275 s;
#X floatatom 202 330 5 0 0 0 - - - 0;
#X obj 183 356 f;
#X obj 183 439 s;
#X obj 183 383 t b f;
#X msg 154 244 color 20 2 2;
#X msg 183 411 color 10 1 0;
#X obj 133 26 r \$0-cordindex;
#X obj 432 21 loadbang;
#X obj 510 66 \$0;
#X floatatom 427 99 5 0 0 0 - - - 0;
#X obj 409 127 f;
#X obj 379 95 bng 15 250 50 0 empty empty empty 17 7 0 10 #fcfcfc #000000
#000000;
#X listbox 409 176 20 0 0 0 - - - 0;
#X obj 409 255 symbol;
#X obj 409 202 t b s;
#X msg 409 228 bang;
#X listbox 328 352 20 0 0 0 - - - 0;
#X obj 334 42 r CreationID;
#X floatatom 506 92 5 0 0 0 - - - 0;
#X text 341 440 comment;
#X msg 409 152 symbol \$1-fifth-recv;
#X obj 304 261 f;
#X obj 306 294 pack f s;
#X msg 328 325 symbol \$1-\$2;
#X msg 545 61 1506;
#X msg 328 380 symbol \$1;
#X obj 435 62 \$1;
#X obj 589 150;
#X obj 165 164 t b b b f b;
#X connect 0 0 31 0;
#X connect 1 0 31 0;
#X connect 3 0 4 1;
#X connect 4 0 6 0;
#X connect 6 0 8 0;
#X connect 7 0 2 0;
#X connect 8 0 5 0;
#X connect 9 0 31 0;
#X connect 10 0 11 0;
#X connect 10 0 29 0;
#X connect 11 0 21 0;
#X connect 12 0 13 1;
#X connect 13 0 23 0;
#X connect 14 0 13 0;
#X connect 15 0 17 0;
#X connect 16 0 25 1;
#X connect 17 0 18 0;
#X connect 17 1 16 1;
#X connect 18 0 16 0;
#X connect 19 0 28 0;
#X connect 23 0 15 0;
#X connect 24 0 25 0;
#X connect 25 0 26 0;
#X connect 26 0 19 0;
#X connect 27 0 21 0;
#X connect 28 0 5 1;
#X connect 28 0 2 1;
#X connect 29 0 24 1;
#X connect 31 0 7 0;
#X connect 31 1 24 0;
#X connect 31 2 14 0;
#X connect 31 3 12 0;
#X connect 31 4 4 0;
#X restore 510 218 pd \$0-displayUpdater;
#X obj 955 706 f;
#N canvas 478 247 450 435 \$0-checkbybarstatus 0;
#X obj 144 83 inlet;
#X obj 174 179 s \$0-randomradio;
#X obj 243 108 ==;
#X obj 243 133 tgl 15 0 empty empty empty 17 7 0 10 #fcfcfc #000000
#000000 0 1;
#X obj 174 153 spigot 0;
#X obj 261 79 r \$0-byrandombar;
#X obj 243 54 r \$0-bybar;
#X obj 298 176 s \$0-cordindex;
#X obj 243 209 == 1;
#X obj 243 234 change;
#X obj 243 258 == 0;
#X obj 243 283 tgl 15 0 empty empty empty 17 7 0 10 #fcfcfc #000000
#000000 0 1;
#X obj 184 312 spigot 0;
#X obj 74 364 s \$0-randomradio;
#X obj 198 361 s \$0-cordindex;
#X obj 144 112 t f f;
#X connect 0 0 15 0;
#X connect 2 0 3 0;
#X connect 3 0 4 1;
#X connect 3 0 8 0;
#X connect 4 0 1 0;
#X connect 4 0 7 0;
#X connect 5 0 2 1;
#X connect 6 0 2 0;
#X connect 8 0 9 0;
#X connect 9 0 10 0;
#X connect 10 0 11 0;
#X connect 11 0 12 1;
#X connect 12 0 14 0;
#X connect 12 0 13 0;
#X connect 15 0 12 0;
#X connect 15 1 4 0;
#X restore 955 734 pd \$0-checkbybarstatus;
#N canvas 563 299 491 557 \$0-makechordchange 0;
#X obj 114 63 inlet;
#X floatatom 114 116 5 0 0 0 - - - 0;
#X obj 167 162 tgl 15 0 empty empty empty 17 7 0 10 #fcfcfc #000000
#000000 0 1;
#X obj 114 191 spigot 0;
#X obj 309 162 tgl 15 0 empty empty empty 17 7 0 10 #fcfcfc #000000
#000000 0 1;
#X obj 256 181 spigot 0;
#X obj 307 111 change;
#X obj 309 136 == 0;
#X floatatom 256 257 5 0 0 0 - - - 0;
#X msg 256 207 bang;
#X obj 256 233 random 2, f 10;
#X floatatom 112 265 5 0 0 0 - - - 0;
#X msg 112 215 bang;
#X obj 112 241 random 2, f 10;
#X obj 256 281 t f b;
#N canvas 612 251 457 381 \$0-incchordifnotbybar 0;
#X obj 93 41 inlet;
#X obj 114 166 outlet;
#X obj 92 269 s \$0-InOrDecchord;
#X obj 116 245 s \$0-InOrDecMinorchord;
#X obj 93 220 sel 0 1;
#X obj 114 116 tgl 15 0 empty empty empty 17 7 0 10 #fcfcfc #000000
#000000 0 1;
#X obj 93 195 spigot 0;
#X obj 114 66 r \$0-bybar;
#X obj 114 92 %;
#X obj 114 140 t f f;
#X obj 198 64 r \$0-byrandombar;
#X connect 0 0 6 0;
#X connect 4 0 2 0;
#X connect 4 1 3 0;
#X connect 5 0 9 0;
#X connect 6 0 4 0;
#X connect 7 0 8 0;
#X connect 8 0 5 0;
#X connect 9 0 1 0;
#X connect 9 1 6 1;
#X connect 10 0 8 1;
#X restore 256 305 pd \$0-incchordifnotbybar;
#N canvas 273 498 467 317 \$0-incchordifbybar 0;
#X obj 117 279 s \$0-changechord;
#X obj 140 254 s \$0-changeminorchord;
#X obj 117 229 sel 0 1;
#X obj 170 184 tgl 15 0 empty empty empty 17 7 0 10 #fcfcfc #000000
#000000 0 1;
#X obj 117 203 spigot 0;
#X obj 170 151 == 0;
#X obj 117 63 t f b;
#X obj 170 125 inlet;
#X obj 152 88 outlet;
#X obj 95 29 inlet;
#X connect 2 0 0 0;
#X connect 2 1 1 0;
#X connect 3 0 4 1;
#X connect 4 0 2 0;
#X connect 5 0 3 0;
#X connect 6 0 4 0;
#X connect 6 1 8 0;
#X connect 7 0 5 0;
#X connect 9 0 6 0;
#X restore 112 332 pd \$0-incchordifbybar;
#X obj 112 306 t f;
#X obj 112 377 outlet;
#X obj 114 90 t f;
#X connect 0 0 19 0;
#X connect 1 0 2 0;
#X connect 1 0 5 0;
#X connect 1 0 3 0;
#X connect 2 0 3 1;
#X connect 2 0 6 0;
#X connect 3 0 12 0;
#X connect 4 0 5 1;
#X connect 5 0 9 0;
#X connect 6 0 7 0;
#X connect 7 0 4 0;
#X connect 8 0 14 0;
#X connect 9 0 10 0;
#X connect 10 0 8 0;
#X connect 11 0 17 0;
#X connect 12 0 13 0;
#X connect 13 0 11 0;
#X connect 14 0 15 0;
#X connect 14 1 18 0;
#X connect 15 0 16 1;
#X connect 16 0 18 0;
#X connect 17 0 16 0;
#X connect 19 0 1 0;
#X restore 955 680 pd \$0-makechordchange;
#X obj 956 654 t f;
#N canvas 21 171 667 601 \$0-checkprobabilitypercentage 0;
#X floatatom 399 248 5 0 0 0 - - - 0;
#X obj 399 196 * 10;
#X obj 399 222 int;
#X obj 399 273 *;
#X floatatom 399 298 5 0 0 1 Percentage - - 0;
#X obj 401 145 t f f b;
#X obj 206 366 tgl 15 0 empty empty empty 17 7 0 10 #fcfcfc #000000
#000000 0 1;
#X obj 206 465 tgl 15 0 empty empty empty 17 7 0 10 #fcfcfc #000000
#000000 0 1;
#X obj 206 316 probabilitycheck;
#X msg 206 288 randomize;
#X floatatom 206 341 5 0 0 0 - - - 0;
#X floatatom 315 341 5 0 0 0 - - - 0;
#X obj 401 171 / 10;
#X obj 206 387 == 1;
#X obj 403 118 f;
#X obj 402 91 t b f;
#X obj 206 413 change;
#X obj 206 438 == 0;
#X msg 197 261 set_comparison 1;
#X obj 420 37 inlet;
#X obj 365 37 inlet;
#X obj 205 489 outlet;
#X obj 207 188 inlet;
#X obj 205 226 t b b;
#X connect 0 0 3 0;
#X connect 1 0 2 0;
#X connect 2 0 0 0;
#X connect 3 0 4 0;
#X connect 4 0 8 1;
#X connect 5 0 12 0;
#X connect 5 1 3 1;
#X connect 6 0 13 0;
#X connect 7 0 21 0;
#X connect 8 0 10 0;
#X connect 8 1 11 0;
#X connect 9 0 8 0;
#X connect 10 0 6 0;
#X connect 12 0 1 0;
#X connect 13 0 16 0;
#X connect 14 0 5 0;
#X connect 15 0 14 0;
#X connect 15 1 14 1;
#X connect 16 0 17 0;
#X connect 17 0 7 0;
#X connect 18 0 8 0;
#X connect 19 0 15 0;
#X connect 20 0 14 0;
#X connect 22 0 23 0;
#X connect 23 0 9 0;
#X connect 23 1 18 0;
#X restore 832 195 pd \$0-checkprobabilitypercentage;
#X obj 832 228 t f;
#X obj 429 308 loadbang;
#X obj 429 337 \$1;
#X msg 428 372 \$1;
#X obj 388 338 \$0;
#X floatatom 379 372 5 0 0 0 - - - 0;
#X obj 355 102 cnv 15 18 18 \$1-1-fifth-send \$1-1-fifth-recv C 3 10
0 20 #e0e0e0 #fcfcfc 0;
#X obj 412 109 cnv 15 18 18 \$1-2-fifth-send \$1-2-fifth-recv G 3 10
0 20 #e0e0e0 #fcfcfc 0;
#X obj 439 141 cnv 15 18 18 \$1-3-fifth-send \$1-3-fifth-recv D 3 10
0 20 #e0e0e0 #fcfcfc 0;
#X obj 396 245 cnv 15 18 18 \$1-6-fifth-send \$1-6-fifth-recv B 3 10
0 20 #e0e0e0 #fcfcfc 0;
#X obj 451 212 cnv 15 18 18 \$1-5-fifth-send \$1-5-fifth-recv E 3 10
0 20 #e0e0e0 #fcfcfc 0;
#X obj 412 233 cnv 15 27 18 \$1-6-fifth-send \$1-6-fifth-recv Cb 3
10 0 20 #e0e0e0 #fcfcfc 0;
#X obj 347 269 cnv 15 27 18 \$1-7-fifth-send \$1-7-fifth-recv F# 3
10 0 20 #e0e0e0 #fcfcfc 0;
#X obj 456 176 cnv 15 18 18 \$1-4-fifth-send \$1-4-fifth-recv A 3 10
0 20 #bcbcbc #404040 0;
#X obj 281 234 cnv 15 27 18 \$1-8-fifth-send \$1-8-fifth-recv Db 3
10 0 20 #e0e0e0 #fcfcfc 0;
#X obj 264 208 cnv 15 27 18 \$1-9-fifth-send \$1-9-fifth-recv Ab 3
10 0 20 #e0e0e0 #fcfcfc 0;
#X obj 254 179 cnv 15 27 18 \$1-10-fifth-send \$1-10-fifth-recv Eb
3 10 0 20 #e0e0e0 #fcfcfc 0;
#X obj 270 140 cnv 15 27 18 \$1-11-fifth-send \$1-11-fifth-recv Bb
3 10 0 20 #e0e0e0 #fcfcfc 0;
#X obj 306 111 cnv 15 18 18 \$1-12-fifth-send \$1-12-fifth-recv F 3
10 0 20 #e0e0e0 #fcfcfc 0;
#X obj 307 252 cnv 15 18 18 \$1-8-fifth-send \$1-8-fifth-recv C 3 10
0 20 #e0e0e0 #fcfcfc 0;
#X obj 353 124 cnv 15 27 18 \$1-1-fifth-send \$1-1-fifth-recv Am 3
10 0 20 #e0e0e0 #fcfcfc 0;
#X obj 387 130 cnv 15 27 18 \$1-2-fifth-send \$1-2-fifth-recv Em 3
10 0 20 #e0e0e0 #fcfcfc 0;
#X obj 406 153 cnv 15 27 18 \$1-3-fifth-send \$1-3-fifth-recv Bm 3
10 0 20 #e0e0e0 #fcfcfc 0;
#X obj 406 202 cnv 15 40 18 \$1-5-fifth-send \$1-5-fifth-recv C#m 3
10 0 20 #e0e0e0 #fcfcfc 0;
#X obj 386 226 cnv 15 40 18 \$1-6-fifth-send \$1-6-fifth-recv G#m 3
10 0 20 #e0e0e0 #fcfcfc 0;
#X obj 344 248 cnv 15 40 18 \$1-7-fifth-send \$1-7-fifth-recv Ebm 3
10 0 20 #e0e0e0 #fcfcfc 0;
#X obj 312 226 cnv 15 40 18 \$1-8-fifth-send \$1-8-fifth-recv Bbm 3
10 0 20 #e0e0e0 #fcfcfc 0;
#X obj 299 203 cnv 15 27 18 \$1-9-fifth-send \$1-9-fifth-recv Fm 3
10 0 20 #e0e0e0 #fcfcfc 0;
#X obj 409 177 cnv 15 40 18 \$1-4-fifth-send \$1-4-fifth-recv F#m 3
10 0 20 #bcbcbc #404040 0;
#X obj 288 179 cnv 15 27 18 \$1-10-fifth-send \$1-10-fifth-recv Cm
3 10 0 20 #e0e0e0 #fcfcfc 0;
#X obj 301 156 cnv 15 27 18 \$1-11-fifth-send \$1-11-fifth-recv Gm
3 10 0 20 #e0e0e0 #fcfcfc 0;
#X obj 318 132 cnv 15 27 18 \$1-12-fifth-send \$1-12-fifth-recv Dm
3 10 0 20 #e0e0e0 #fcfcfc 0;
#X obj 171 11 inlet;
#X obj 1054 137 t b f;
#X obj 861 99 bng 15 250 50 0 empty empty Step 17 7 0 10 #fcfcfc #000000
#000000;
#X obj 1057 164 bng 15 250 50 0 empty empty Ticks 17 7 0 10 #fcfcfc
#000000 #000000;
#X obj 1293 476 outlet;
#X obj 1136 213 f;
#X obj 1136 191 bng 15 250 50 0 empty empty get_chordindex 17 7 0 10
#fcfcfc #000000 #000000;
#X obj 1263 215 f;
#X obj 1263 193 bng 15 250 50 0 empty empty get_barspercord 17 7 0
10 #fcfcfc #000000 #000000;
#X obj 1385 214 f;
#X obj 1385 192 bng 15 250 50 0 empty empty get_beats 17 7 0 10 #fcfcfc
#000000 #000000;
#X obj 1469 213 f;
#X obj 1469 181 bng 15 250 50 0 empty empty get_beatfreq 17 7 0 10
#fcfcfc #000000 #000000;
#X obj 1567 212 f;
#X obj 1567 170 bng 15 250 50 0 empty empty rhythm_probability 17 7
0 10 #fcfcfc #000000 #000000;
#X obj 1667 213 f;
#X obj 1667 183 bng 15 250 50 0 empty empty get_stepshift 17 7 0 10
#fcfcfc #000000 #000000;
#X obj 1767 216 f;
#X obj 1768 193 bng 15 250 50 0 empty empty get_minorfreq 17 7 0 10
#fcfcfc #000000 #000000;
#X obj 169 35 route change_index bangmajor bangminor set_bars set_beats
set_beatfreq set_rhythm set_stepshift set_minorfreq input_bar input_step
input_tick get_chordindex get_barsperchord get_beats get_beatfreq get_rhythmprob
get_stepshift get_minorfreq, f 243;
#X obj 537 343 loadbang;
#N canvas 182 182 889 458 \$0-loadfifthsdefaults 0;
#X obj 95 43 inlet;
#X msg 243 96 0;
#X obj 243 120 s s0-defaultchordindex;
#X obj 208 143 s s0-defaultbarsperchord;
#X msg 204 115 2;
#X obj 169 171 s s0-defaultbeats;
#X obj 136 196 s s0-defaultbeatfreq;
#X obj 101 226 s s0-defaultrhythmprob;
#X msg 136 170 3;
#X msg 169 141 4;
#X msg 100 196 6;
#X obj 83 273 s s0-defaultstepshift;
#X obj 43 304 s s0-defaultminorfreq;
#X obj 91 73 t b b b b b b b;
#X msg 77 248 2;
#X msg 44 277 3;
#X connect 0 0 13 0;
#X connect 1 0 2 0;
#X connect 4 0 3 0;
#X connect 8 0 6 0;
#X connect 9 0 5 0;
#X connect 10 0 7 0;
#X connect 13 0 15 0;
#X connect 13 1 14 0;
#X connect 13 2 10 0;
#X connect 13 3 8 0;
#X connect 13 4 9 0;
#X connect 13 5 4 0;
#X connect 13 6 1 0;
#X connect 14 0 11 0;
#X connect 15 0 12 0;
#X restore 537 370 pd \$0-loadfifthsdefaults;
#X obj 66 73 r s0-defaultchordindex;
#X obj 234 73 r s0-defaultbarsperchord;
#X obj 415 72 r s0-defaultbeats;
#X obj 544 72 r s0-defaultbeatfreq;
#X obj 517 101 r s0-defaultrhythmprob;
#X obj 520 128 r s0-defaultstepshift;
#X obj 518 156 r s0-defaultminorfreq;
#N canvas 208 208 450 317 \$0-euclideancolors 0;
#X obj 100 100 bng 10 250 50 0 empty empty empty 17 7 0 10 #dcdcdc
#000000 #000000;
#X obj 111 100 bng 10 250 50 0 empty empty empty 17 7 0 10 #fcfcfc
#000000 #000000;
#X obj 122 100 bng 10 250 50 0 empty empty empty 17 7 0 10 #fcfcfc
#000000 #000000;
#X obj 133 100 bng 10 250 50 0 empty empty empty 17 7 0 10 #fcfcfc
#000000 #000000;
#X obj 144 100 bng 10 250 50 0 empty empty empty 17 7 0 10 #fcfcfc
#000000 #000000;
#X obj 177 100 bng 10 250 50 0 empty empty empty 17 7 0 10 #fcfcfc
#000000 #000000;
#X obj 155 100 bng 10 250 50 0 empty empty empty 17 7 0 10 #fcfcfc
#000000 #000000;
#X obj 166 100 bng 10 250 50 0 empty empty empty 17 7 0 10 #fcfcfc
#000000 #000000;
#X obj 100 100 cnv 10 87 10 empty empty empty 20 12 0 14 #e0e0e0 #404040
0;
#X obj 111 100 cnv 10 10 10 \$1-ColorSwatchRed_send \$1-ColorSwatchRed_recv
empty 20 12 0 14 #fc0400 #404040 0;
#X obj 122 100 cnv 10 10 10 \$1-ColorSwatchOrange_send \$1-ColorSwatchOrange_recv
empty 20 12 0 14 #fc8000 #404040 0;
#X obj 133 100 cnv 10 10 10 \$1-ColorSwatchYellow_send \$1-ColorSwatchYellow_recv
empty 20 12 0 14 #f8fc00 #404040 0;
#X obj 144 100 cnv 10 10 10 \$1-ColorSwatchGreen_send \$1-ColorSwatchGreen_recv
empty 20 12 0 14 #00fc04 #404040 0;
#X obj 155 100 cnv 10 10 10 \$1-ColorSwatchLightBlue_send \$1-ColorSwatchLightBlue_recv
empty 20 12 0 14 #00f8fc #404040 0;
#X obj 166 100 cnv 10 10 10 \$1-ColorSwatchBlue_send \$1-ColorSwatchBlue_recv
empty 20 12 0 14 #0400fc #404040 0;
#X obj 177 100 cnv 10 10 10 \$1-ColorSwatchPurple_send \$1-ColorSwatchPurple_recv
empty 20 12 0 14 #9c00fc #404040 0;
#X obj 100 100 cnv 10 10 10 \$1-ColorSwatchGrey_send \$1-ColorSwatchGrey_recv
empty 20 12 0 14 #b8b8b8 #404040 0;
#X obj 344 34 hsl 128 15 0 127 0 0 empty empty empty -2 -8 0 10 #fcfcfc
#000000 #000000 0 1;
#X floatatom 341 53 5 0 0 0 - - - 0;
#X obj 341 94 s \$1-synthBGCanvas_recv;
#X msg 341 74 color \$1;
#X msg 341 121 \; \$1-synthNameLabel_recv \$1 \; \$1-synthBGCanvas_recv
\$1 \;;
#X obj 63 30 loadbang;
#X obj 142 20 hradio 15 1 0 8 empty empty empty 0 -8 0 10 #fcfcfc #000000
#000000 0;
#X floatatom 141 41 5 0 0 0 - - - 0;
#X obj 23 43 bng 15 250 50 0 empty empty empty 17 7 0 10 #fcfcfc #000000
#000000;
#X obj 140 64 route 0 1 2 3 4 5 6 7;
#X obj 60 55 random 8;
#X floatatom 61 77 5 0 0 0 - - - 0;
#X obj 61 96 t f;
#N canvas 343 206 970 532 \$0-colormsgs 0;
#X msg 227 205 color 13;
#X msg 160 208 color 20;
#X msg 296 206 color 14;
#X msg 438 208 color 16;
#X msg 507 211 color 17;
#X msg 570 208 color 18;
#X msg 635 210 color 19;
#X msg 367 207 color 15;
#X obj 159 121 inlet;
#X obj 222 122 inlet;
#X obj 291 126 inlet;
#X obj 356 133 inlet;
#X obj 424 135 inlet;
#X obj 487 136 inlet;
#X obj 560 141 inlet;
#X obj 625 144 inlet;
#X obj 160 281 outlet;
#X obj 758 337 f;
#X obj 754 309 t b f;
#X obj 914 358 s \$1-adsrlinecolor;
#X obj 911 335 f;
#X obj 907 307 t b f;
#X obj 160 170 t b b;
#X obj 222 164 t b b;
#X obj 290 168 t b b;
#X obj 361 170 t b b;
#X obj 433 174 t b b;
#X obj 502 175 t b b;
#X obj 564 175 t b b;
#X obj 630 175 t b b;
#N canvas 798 121 1920 997 \$0-colornumbers 0;
#X msg 143 178 20;
#X msg 191 182 13;
#X msg 227 183 14;
#X msg 264 190 15;
#X msg 315 194 16;
#X msg 351 198 17;
#X msg 398 198 18;
#X msg 444 195 19;
#X msg 405 396 66;
#X msg 440 396 60;
#X msg 515 396 630;
#X msg 555 396 701;
#X msg 597 390 233;
#X msg 479 396 770;
#X msg 643 392 8;
#X msg 677 391 524;
#X text 498 360 RGB Type Colors;
#X text 271 155 Propeties Panel Colors;
#X obj 143 114 inlet;
#X obj 192 113 inlet;
#X obj 238 112 inlet;
#X obj 283 111 inlet;
#X obj 331 112 inlet;
#X obj 379 113 inlet;
#X obj 425 114 inlet;
#X obj 471 115 inlet;
#X obj 181 463 outlet;
#X obj 470 501 outlet;
#X obj 252 747 else/pack2 fgcolor 220 220 220, f 18;
#X obj 292 578 vsl 15 128 0 255 0 0 nope nada empty 0 -9 0 10 #fc0000
#fcfcfc #000000 0 0;
#X obj 327 578 vsl 15 128 0 255 0 0 nope nada empty 0 -9 0 10 #00fc00
#fcfcfc #000000 0 0;
#X obj 362 578 vsl 15 128 0 255 0 0 nope nada empty 0 -9 0 10 #0400fc
#fcfcfc #000000 0 0;
#X floatatom 359 728 5 0 0 0 - - - 0;
#X floatatom 316 721 5 0 0 0 - - - 0;
#X floatatom 279 720 5 0 0 0 - - - 0;
#X msg 265 548 200;
#X msg 280 528 0;
#X obj 252 780 s \$0-rgbcoloorswitch;
#X obj 240 508 t b b b;
#X msg 381 546 200;
#X msg 396 526 0;
#X obj 356 506 t b b b;
#X connect 0 0 12 0;
#X connect 0 0 26 0;
#X connect 0 0 41 0;
#X connect 1 0 11 0;
#X connect 1 0 26 0;
#X connect 1 0 41 0;
#X connect 2 0 10 0;
#X connect 2 0 26 0;
#X connect 2 0 41 0;
#X connect 3 0 13 0;
#X connect 3 0 26 0;
#X connect 3 0 41 0;
#X connect 4 0 9 0;
#X connect 4 0 26 0;
#X connect 4 0 38 0;
#X connect 5 0 8 0;
#X connect 5 0 26 0;
#X connect 5 0 41 0;
#X connect 6 0 14 0;
#X connect 6 0 26 0;
#X connect 6 0 41 0;
#X connect 7 0 15 0;
#X connect 7 0 26 0;
#X connect 7 0 41 0;
#X connect 8 0 27 0;
#X connect 9 0 27 0;
#X connect 10 0 27 0;
#X connect 11 0 27 0;
#X connect 12 0 27 0;
#X connect 13 0 27 0;
#X connect 14 0 27 0;
#X connect 15 0 27 0;
#X connect 18 0 0 0;
#X connect 19 0 1 0;
#X connect 20 0 2 0;
#X connect 21 0 3 0;
#X connect 22 0 4 0;
#X connect 23 0 5 0;
#X connect 24 0 6 0;
#X connect 25 0 7 0;
#X connect 28 0 37 0;
#X connect 29 0 34 0;
#X connect 30 0 33 0;
#X connect 31 0 32 0;
#X connect 32 0 28 3;
#X connect 33 0 28 2;
#X connect 34 0 28 1;
#X connect 35 0 29 0;
#X connect 36 0 30 0;
#X connect 36 0 31 0;
#X connect 38 0 28 0;
#X connect 38 1 35 0;
#X connect 38 2 36 0;
#X connect 39 0 30 0;
#X connect 40 0 29 0;
#X connect 41 0 28 0;
#X connect 41 1 39 0;
#X connect 41 2 40 0;
#X restore 755 281 pd \$0-colornumbers \$1;
#X obj 1064 189 loadbang;
#X obj 1065 211 \$0;
#X floatatom 1065 237 5 0 0 0 - - - 0;
#X obj 738 378 s \$0-NewUiColorColorNum;
#X obj 893 419 print;
#X obj 351 431 route 20 13 14 15 16 17 18 19;
#X obj 351 399 r \$0-loaded-BGColor;
#X obj 723 407 s NewUiColorColorNum;
#X connect 0 0 16 0;
#X connect 1 0 16 0;
#X connect 2 0 16 0;
#X connect 3 0 16 0;
#X connect 4 0 16 0;
#X connect 5 0 16 0;
#X connect 6 0 16 0;
#X connect 7 0 16 0;
#X connect 8 0 22 0;
#X connect 9 0 23 0;
#X connect 10 0 24 0;
#X connect 11 0 25 0;
#X connect 12 0 26 0;
#X connect 13 0 27 0;
#X connect 14 0 28 0;
#X connect 15 0 29 0;
#X connect 17 0 34 0;
#X connect 17 0 38 0;
#X connect 18 0 17 0;
#X connect 18 1 17 1;
#X connect 20 0 19 0;
#X connect 21 0 20 0;
#X connect 21 1 20 1;
#X connect 22 0 1 0;
#X connect 22 1 30 0;
#X connect 23 0 0 0;
#X connect 23 1 30 1;
#X connect 24 0 2 0;
#X connect 24 1 30 2;
#X connect 25 0 7 0;
#X connect 25 1 30 3;
#X connect 26 0 3 0;
#X connect 26 1 30 4;
#X connect 27 0 4 0;
#X connect 27 1 30 5;
#X connect 28 0 5 0;
#X connect 28 1 30 6;
#X connect 29 0 6 0;
#X connect 29 1 30 7;
#X connect 30 0 18 0;
#X connect 31 0 32 0;
#X connect 32 0 33 0;
#X connect 37 0 36 0;
#X restore 259 210 pd \$0-colormsgs \$0;
#X f 24;
#N canvas -8 -8 1512 861 \$0-AdjustTheseItems 0;
#X obj 68 83 inlet;
#X obj 405 34 loadbang;
#X obj 397 60 \$0;
#X obj 231 471 s \$0-NewUiColorMSG;
#X obj 216 493 s \$0-velseq1_recv;
#X obj 201 515 s \$0-velseq2_recv;
#X obj 190 537 s \$0-pitchseq1_recv;
#X obj 177 558 s \$0-pitchseq2_recv;
#X obj 127 802 s \$0-activecan_recv;
#X obj 116 823 s \$0-synthOct_recv;
#X obj 101 845 s \$0-synthBGCanvas_recv;
#X obj 90 867 s \$0-synthTypeLabel_recv;
#X obj 76 890 s \$0-synthOctBG_recv;
#X obj 61 914 s \$0-synthNameLabel_recv;
#X obj 47 936 s \$0-synthPropertiesBG_recv;
#X floatatom 200 668 5 0 0 0 - - - 0;
#X msg 147 746 color \$1 \$2 \$3;
#X obj 148 713 pack f f f;
#X msg 145 679 21;
#X obj 160 644 t b f;
#X obj 161 586 r \$0-NewUiColorMSG;
#X obj 160 619 r \$0-NewUiColorColorNum;
#X obj 150 773 s \$0-osctext-recv;
#X obj 272 403 s \$0-octlabel-recv;
#X obj 260 430 s \$0-semilabel-recv;
#X obj 244 451 s \$0-centlabel-recv;
#X msg 397 83 \$1;
#X floatatom 408 101 5 0 0 0 - - - 0;
#X obj 301 335 s \$0-genprolabel-recv;
#X obj 290 357 s \$0-genprolabel2-recv;
#X obj 282 381 s \$0-genprolabel3-recv;
#X obj 138 618 t b;
#X obj 313 313 s \$0-outdactoggle-recv;
#X obj 324 291 s \$0-outsigtoggle-recv;
#X obj 334 272 s \$0-tTypeMic1-recv;
#X obj 344 252 s \$0-tTypeSig1-recv;
#X obj 357 229 s \$0-tTypeMic2-recv;
#X obj 368 208 s \$0-tTypeSig2-recv;
#X obj 378 185 s \$0-tTypeMic3-recv;
#X obj 390 166 s \$0-tTypeSig3-recv;
#X obj 436 145 s \$0-tTypeSig4-recv;
#X obj 447 122 s \$0-tTypeMic4-recv;
#X obj 629 239 s \$0-activepatch_recv;
#X obj 67 129 t a a a a a a a b a a a a a a a a a a a a a a a a a a
a a a a a a;
#X obj 403 622 t a a;
#X obj 403 600 r \$0-NewUiColorMSG;
#X obj 429 665 s \$0-bpmProperties-recv;
#X obj 403 643 s \$0-seqProperties-recv;
#X connect 0 0 43 0;
#X connect 1 0 2 0;
#X connect 2 0 26 0;
#X connect 15 0 17 2;
#X connect 16 0 22 0;
#X connect 17 0 16 0;
#X connect 18 0 17 0;
#X connect 19 0 18 0;
#X connect 19 1 15 0;
#X connect 20 0 31 0;
#X connect 21 0 19 0;
#X connect 26 0 27 0;
#X connect 31 0 18 0;
#X connect 43 0 14 0;
#X connect 43 1 13 0;
#X connect 43 2 12 0;
#X connect 43 3 11 0;
#X connect 43 4 10 0;
#X connect 43 5 9 0;
#X connect 43 6 8 0;
#X connect 43 7 31 0;
#X connect 43 8 7 0;
#X connect 43 9 6 0;
#X connect 43 10 5 0;
#X connect 43 11 4 0;
#X connect 43 12 3 0;
#X connect 43 13 25 0;
#X connect 43 14 24 0;
#X connect 43 15 23 0;
#X connect 43 16 30 0;
#X connect 43 17 29 0;
#X connect 43 18 28 0;
#X connect 43 19 32 0;
#X connect 43 20 33 0;
#X connect 43 21 34 0;
#X connect 43 22 35 0;
#X connect 43 23 36 0;
#X connect 43 24 37 0;
#X connect 43 25 38 0;
#X connect 43 26 39 0;
#X connect 43 27 40 0;
#X connect 43 28 41 0;
#X connect 44 0 47 0;
#X connect 44 1 46 0;
#X connect 45 0 44 0;
#X restore 261 233 pd \$0-AdjustTheseItems \$0;
#X obj 42 251 route 20 13 14 15 16 17 18 19;
#X obj 22 221 r \$0-loaded-BGColor;
#X connect 0 0 30 0;
#X connect 1 0 30 1;
#X connect 2 0 30 2;
#X connect 3 0 30 3;
#X connect 4 0 30 4;
#X connect 5 0 30 7;
#X connect 6 0 30 5;
#X connect 7 0 30 6;
#X connect 17 0 18 0;
#X connect 18 0 20 0;
#X connect 20 0 19 0;
#X connect 22 0 27 0;
#X connect 23 0 24 0;
#X connect 24 0 26 0;
#X connect 25 0 27 0;
#X connect 26 0 0 0;
#X connect 26 1 1 0;
#X connect 26 2 2 0;
#X connect 26 3 3 0;
#X connect 26 4 4 0;
#X connect 26 5 6 0;
#X connect 26 6 7 0;
#X connect 26 7 5 0;
#X connect 27 0 28 0;
#X connect 28 0 29 0;
#X connect 29 0 23 0;
#X connect 30 0 31 0;
#X connect 32 0 0 0;
#X connect 32 1 1 0;
#X connect 32 2 2 0;
#X connect 32 3 3 0;
#X connect 32 4 4 0;
#X connect 32 5 6 0;
#X connect 32 6 7 0;
#X connect 32 7 5 0;
#X connect 33 0 32 0;
#X coords 0 -1 1 1 87 10 2 100 100;
#X restore 390 277 pd \$0-euclideancolors;
#N canvas 235 76 934 843 \$0-euclideantoggle 0;
#X obj 102 102 tgl 12 0 empty empty empty 17 7 0 10 #606060 #000000
#dcdcdc 0 1;
#X obj 100 100 cnv 16 16 16 empty empty empty 20 12 0 14 #202020 #404040
0;
#X obj 103 103 cnv 10 10 10 \$0-euclideantoggle-send \$0-euclideantoggle-recv
empty 20 12 0 14 #fcac44 #404040 0;
#X obj 169 598 s;
#X obj 171 442 f;
#X obj 171 420 t b f;
#X obj 100 206 spigot 0;
#X obj 145 162 tgl 15 0 empty empty empty 17 7 0 10 #fcfcfc #000000
#000000 0 1;
#X obj 145 139 change;
#X obj 145 116 == 0;
#X obj 216 372 tgl 15 0 empty empty empty 17 7 0 10 #fcfcfc #000000
#000000 0 1;
#X obj 171 345 change;
#X obj 171 395 spigot 0;
#X obj 171 322 == 0;
#X obj 171 366 t b f;
#X obj 171 462 t b b;
#X obj 73 424 s;
#X obj 100 251 f;
#X obj 100 229 t b f;
#X obj 100 271 t b b;
#X msg 169 551 color 16;
#X obj 145 184 t f f;
#X obj 56 129 tgl 15 0 empty empty empty 17 7 0 10 #fcfcfc #000000
#000000 0 1;
#X obj 55 150 t f b f;
#X obj 192 17 inlet;
#X obj 294 66 loadbang;
#X msg 144 94 0;
#X msg 27 464 color \$1;
#X floatatom 25 438 5 0 0 0 - - - 0;
#X obj 425 103 \$1;
#X msg 426 128 \$1;
#X floatatom 410 151 5 0 0 0 - - - 0;
#X obj 182 574 symbol;
#X obj 413 255 t b s;
#X msg 409 278 bang;
#X obj 409 189 t f f;
#X obj 146 712 symbol;
#X obj 145 671 t b s;
#X msg 141 694 bang;
#X obj 129 733 s;
#X msg 218 260 bang;
#X msg 290 238 \$1;
#X obj 219 281 f;
#X msg 53 365 color \$1;
#X obj 388 397 == 16;
#X obj 390 427 change;
#X obj 392 448 == 0;
#X obj 393 473 t b;
#X obj 397 500 bng 15 250 50 0 empty empty empty 17 7 0 10 #fcfcfc
#000000 #000000;
#X obj 396 534 tgl 15 0 empty empty empty 17 7 0 10 #fcfcfc #000000
#000000 0 1;
#X obj 349 555 spigot 0;
#X obj 488 466 change;
#X obj 491 512 t b;
#X obj 495 539 bng 15 250 50 0 empty empty empty 17 7 0 10 #fcfcfc
#000000 #000000;
#X obj 494 573 tgl 15 0 empty empty empty 17 7 0 10 #fcfcfc #000000
#000000 0 1;
#X obj 447 594 spigot 0;
#X obj 490 487 == 1;
#X obj 486 436 != 16;
#X msg 298 589 color 13;
#X obj 141 75 t b b;
#X text 184 764 comment;
#X symbolatom 168 742 10 0 0 0 - - - 0;
#X obj 249 199 t b b f;
#X obj 253 176 r \$0-NewUiColorColorNum;
#X obj 392 364 r \$0-NewUiColorColorNum;
#X obj 490 403 r \$0-NewUiColorColorNum;
#X obj 289 98 \$0;
#X msg 288 119 \$1;
#X floatatom 284 148 5 0 0 0 - - - 0;
#X obj 231 133 f;
#X msg 143 650 symbol \$1-euclideantoggle;
#X msg 411 229 symbol \$1-euclideantoggle-recv;
#X msg 499 139 2169;
#X connect 0 0 22 0;
#X connect 4 0 15 0;
#X connect 5 0 4 0;
#X connect 5 1 4 1;
#X connect 6 0 18 0;
#X connect 7 0 21 0;
#X connect 8 0 7 0;
#X connect 9 0 8 0;
#X connect 10 0 12 1;
#X connect 11 0 14 0;
#X connect 12 0 5 0;
#X connect 13 0 11 0;
#X connect 14 0 12 0;
#X connect 14 1 10 0;
#X connect 15 0 20 0;
#X connect 15 0 50 0;
#X connect 15 1 34 0;
#X connect 17 0 19 0;
#X connect 18 0 17 0;
#X connect 18 1 17 1;
#X connect 19 0 40 0;
#X connect 19 1 34 0;
#X connect 20 0 55 0;
#X connect 21 0 6 1;
#X connect 21 1 13 0;
#X connect 22 0 23 0;
#X connect 23 0 39 0;
#X connect 23 1 6 0;
#X connect 23 2 9 0;
#X connect 24 0 22 0;
#X connect 25 0 59 0;
#X connect 25 0 66 0;
#X connect 26 0 9 0;
#X connect 26 0 22 0;
#X connect 27 0 16 0;
#X connect 28 0 27 0;
#X connect 29 0 30 0;
#X connect 30 0 31 0;
#X connect 31 0 35 0;
#X connect 32 0 16 1;
#X connect 32 0 3 1;
#X connect 33 0 34 0;
#X connect 33 1 32 1;
#X connect 34 0 32 0;
#X connect 35 0 71 0;
#X connect 35 1 70 0;
#X connect 36 0 39 1;
#X connect 36 0 61 0;
#X connect 37 0 38 0;
#X connect 37 1 36 1;
#X connect 38 0 36 0;
#X connect 40 0 42 0;
#X connect 41 0 42 1;
#X connect 42 0 43 0;
#X connect 43 0 16 0;
#X connect 44 0 45 0;
#X connect 45 0 46 0;
#X connect 46 0 47 0;
#X connect 47 0 48 0;
#X connect 48 0 49 0;
#X connect 49 0 50 1;
#X connect 50 0 58 0;
#X connect 51 0 56 0;
#X connect 52 0 53 0;
#X connect 53 0 54 0;
#X connect 54 0 55 1;
#X connect 55 0 3 0;
#X connect 56 0 52 0;
#X connect 57 0 51 0;
#X connect 58 0 3 0;
#X connect 59 0 26 0;
#X connect 59 1 26 0;
#X connect 62 0 12 0;
#X connect 62 1 40 0;
#X connect 62 2 41 0;
#X connect 63 0 62 0;
#X connect 64 0 44 0;
#X connect 65 0 57 0;
#X connect 66 0 67 0;
#X connect 67 0 68 0;
#X connect 68 0 69 1;
#X connect 68 0 31 0;
#X connect 70 0 37 0;
#X connect 71 0 33 0;
#X connect 72 0 31 0;
#X coords 0 -1 1 1 16 16 2 100 100;
#X restore 102 103 pd \$0-euclideantoggle;
#X obj 685 3 spigot 0;
#X obj 738 -17 tgl 15 0 empty empty empty 17 7 0 10 #fcfcfc #000000
#000000 0 1;
#X obj 738 -44 r \$0-euclideantoggle;
#X obj 895 5 spigot 0;
#X obj 948 -15 tgl 15 0 empty empty empty 17 7 0 10 #fcfcfc #000000
#000000 0 1;
#X obj 948 -42 r \$0-euclideantoggle;
#X obj 1090 8 spigot 0;
#X obj 1143 -12 tgl 15 0 empty empty empty 17 7 0 10 #fcfcfc #000000
#000000 0 1;
#X obj 1143 -39 r \$0-euclideantoggle;
#X connect 1 0 3 0;
#X connect 2 0 1 0;
#X connect 3 0 71 0;
#X connect 4 0 2 0;
#X connect 5 0 6 0;
#X connect 6 0 48 0;
#X connect 8 0 9 1;
#X connect 9 0 5 0;
#X connect 10 0 97 0;
#X connect 12 0 92 0;
#X connect 13 0 43 0;
#X connect 14 0 16 0;
#X connect 14 1 19 0;
#X connect 15 0 46 1;
#X connect 16 0 46 0;
#X connect 17 0 20 0;
#X connect 18 0 45 1;
#X connect 19 0 45 0;
#X connect 20 0 42 0;
#X connect 20 1 42 1;
#X connect 21 0 13 0;
#X connect 24 0 23 0;
#X connect 24 1 22 0;
#X connect 26 0 27 0;
#X connect 27 0 28 0;
#X connect 28 0 31 0;
#X connect 28 1 34 0;
#X connect 29 0 32 0;
#X connect 30 0 29 1;
#X connect 31 0 29 0;
#X connect 32 0 36 0;
#X connect 33 0 44 1;
#X connect 34 0 44 0;
#X connect 35 0 38 0;
#X connect 36 0 35 0;
#X connect 36 1 35 1;
#X connect 38 0 40 0;
#X connect 38 1 37 0;
#X connect 39 0 26 0;
#X connect 42 0 24 0;
#X connect 43 0 14 0;
#X connect 44 0 32 0;
#X connect 44 0 53 0;
#X connect 45 0 17 0;
#X connect 45 0 50 0;
#X connect 46 0 17 0;
#X connect 48 0 7 0;
#X connect 49 0 46 1;
#X connect 49 0 45 1;
#X connect 49 0 29 1;
#X connect 49 0 44 1;
#X connect 50 0 51 0;
#X connect 51 0 52 0;
#X connect 52 0 56 0;
#X connect 53 0 54 0;
#X connect 54 0 55 0;
#X connect 55 0 57 0;
#X connect 56 0 20 0;
#X connect 57 0 36 0;
#X connect 58 0 4 2;
#X connect 59 0 58 0;
#X connect 59 1 58 1;
#X connect 60 0 5 2;
#X connect 61 0 60 0;
#X connect 61 1 60 1;
#X connect 62 0 47 0;
#X connect 62 1 4 0;
#X connect 62 2 119 0;
#X connect 63 0 65 0;
#X connect 63 1 66 0;
#X connect 64 0 63 0;
#X connect 65 0 118 0;
#X connect 67 0 63 0;
#X connect 68 0 77 0;
#X connect 69 0 68 0;
#X connect 69 1 68 1;
#X connect 70 0 9 0;
#X connect 70 1 5 1;
#X connect 70 2 4 1;
#X connect 70 3 60 0;
#X connect 70 3 119 1;
#X connect 70 4 58 0;
#X connect 70 5 68 0;
#X connect 71 0 64 0;
#X connect 71 1 115 1;
#X connect 71 2 67 0;
#X connect 72 0 75 0;
#X connect 73 0 74 0;
#X connect 74 0 72 0;
#X connect 75 0 76 0;
#X connect 76 0 63 1;
#X connect 77 0 78 0;
#X connect 77 1 75 1;
#X connect 78 0 73 0;
#X connect 80 0 82 0;
#X connect 80 1 83 0;
#X connect 81 0 80 0;
#X connect 82 0 95 0;
#X connect 84 0 80 0;
#X connect 85 0 88 0;
#X connect 86 0 87 0;
#X connect 87 0 85 0;
#X connect 88 0 89 0;
#X connect 89 0 80 1;
#X connect 90 0 91 0;
#X connect 90 1 88 1;
#X connect 91 0 86 0;
#X connect 92 0 81 0;
#X connect 92 1 84 0;
#X connect 93 0 96 0;
#X connect 94 0 93 1;
#X connect 95 0 93 0;
#X connect 95 1 94 0;
#X connect 96 0 10 0;
#X connect 97 0 25 0;
#X connect 97 1 11 0;
#X connect 97 2 41 0;
#X connect 98 0 101 2;
#X connect 99 0 101 1;
#X connect 100 0 101 0;
#X connect 101 0 102 0;
#X connect 101 1 103 0;
#X connect 104 0 59 0;
#X connect 104 0 167 1;
#X connect 105 0 106 0;
#X connect 105 0 159 1;
#X connect 107 0 119 2;
#X connect 107 0 165 1;
#X connect 108 0 69 0;
#X connect 108 0 169 1;
#X connect 109 0 90 0;
#X connect 109 0 161 1;
#X connect 110 0 61 0;
#X connect 110 0 163 1;
#X connect 111 0 98 0;
#X connect 111 0 157 1;
#X connect 112 0 99 0;
#X connect 113 0 100 0;
#X connect 115 0 116 0;
#X connect 117 0 115 0;
#X connect 118 0 117 0;
#X connect 119 0 120 0;
#X connect 120 0 8 0;
#X connect 121 0 122 0;
#X connect 121 0 124 0;
#X connect 122 0 123 0;
#X connect 124 0 125 0;
#X connect 152 0 171 0;
#X connect 153 0 155 0;
#X connect 157 0 156 0;
#X connect 158 0 157 0;
#X connect 159 0 156 0;
#X connect 160 0 159 0;
#X connect 161 0 156 0;
#X connect 162 0 161 0;
#X connect 163 0 156 0;
#X connect 164 0 163 0;
#X connect 165 0 156 0;
#X connect 166 0 165 0;
#X connect 167 0 156 0;
#X connect 168 0 167 0;
#X connect 169 0 156 0;
#X connect 170 0 169 0;
#X connect 171 0 111 0;
#X connect 171 1 113 0;
#X connect 171 2 112 0;
#X connect 171 3 105 0;
#X connect 171 4 109 0;
#X connect 171 5 110 0;
#X connect 171 6 107 0;
#X connect 171 7 104 0;
#X connect 171 8 108 0;
#X connect 171 9 79 0;
#X connect 171 9 183 0;
#X connect 171 10 154 0;
#X connect 171 10 186 0;
#X connect 171 11 189 0;
#X connect 171 12 158 0;
#X connect 171 13 160 0;
#X connect 171 14 162 0;
#X connect 171 15 164 0;
#X connect 171 16 166 0;
#X connect 171 17 168 0;
#X connect 171 18 170 0;
#X connect 172 0 173 0;
#X connect 174 0 111 0;
#X connect 175 0 105 0;
#X connect 176 0 109 0;
#X connect 177 0 110 0;
#X connect 178 0 107 0;
#X connect 179 0 104 0;
#X connect 180 0 108 0;
#X connect 183 0 62 0;
#X connect 184 0 183 1;
#X connect 185 0 184 0;
#X connect 186 0 70 0;
#X connect 187 0 186 1;
#X connect 188 0 187 0;
#X connect 189 0 153 0;
#X connect 190 0 189 1;
#X connect 191 0 190 0;
#X coords 0 -1 1 1 380 190 2 100 100;
